<svg width="64" height="64" viewBox="0 0 64 64" fill="none" xmlns="http://www.w3.org/2000/svg"><path fill-rule="evenodd" clip-rule="evenodd" d="M22.375 23.0625L21.9688 21h-2c-1.1048 0-2-.8954-2-2h4.8124c.5103 0 .9322.3843 1 .875L24.1875 22h.0313L27 36h14.5938l2.375-12h-16.75v-2h16.75c1.1047 0 2 .8954 2 2 0 .1301-.0127.2599-.0313.375l-2.375 12c-.1861.9496-1.0078 1.625-1.9687 1.625H27c-.9692 0-1.7905-.6745-1.9688-1.625L22.375 23.0625zM31 42.9688c0 1.1045-.8954 2-2 2s-2-.8955-2-2c0-1.1046.8954-2 2-2s2 .8954 2 2zm8 2c1.1046 0 2-.8955 2-2 0-1.1046-.8954-2-2-2s-2 .8954-2 2c0 1.1045.8954 2 2 2z" fill="#000" fill-opacity=".85"/></svg>